<?xml version="1.0" encoding="UTF-8" standalone="no"?>
<svg
   version="1.1"
   viewBox="0 0 151.83467 142.18156"
   fill="none"
   stroke="none"
   stroke-linecap="square"
   stroke-miterlimit="10"
   id="svg20"
   sodipodi:docname="logo-orange.svg"
   inkscape:version="1.4.2 (ebf0e940, 2025-05-08)"
   width="151.83467"
   height="142.18156"
   xmlns:inkscape="http://www.inkscape.org/namespaces/inkscape"
   xmlns:sodipodi="http://sodipodi.sourceforge.net/DTD/sodipodi-0.dtd"
   xmlns="http://www.w3.org/2000/svg"
   xmlns:svg="http://www.w3.org/2000/svg">
  <defs
     id="defs20" />
  <sodipodi:namedview
     id="namedview20"
     pagecolor="#ffffff"
     bordercolor="#000000"
     borderopacity="0.25"
     inkscape:showpageshadow="2"
     inkscape:pageopacity="0.0"
     inkscape:pagecheckerboard="0"
     inkscape:deskcolor="#d1d1d1"
     inkscape:zoom="0.95612137"
     inkscape:cx="133.35127"
     inkscape:cy="135.44306"
     inkscape:window-width="1488"
     inkscape:window-height="970"
     inkscape:window-x="111"
     inkscape:window-y="44"
     inkscape:window-maximized="0"
     inkscape:current-layer="svg20" />
  <clipPath
     id="g378c5b56493_0_0.0">
    <path
       d="M 0,0 H 960 V 540 H 0 Z"
       clip-rule="nonzero"
       id="path1" />
  </clipPath>
  <path
     style="stroke-width:0.234465;fill:#ff550f;fill-opacity:1"
     d="m 41.477192,141.9473 c -5.52236,-0.99162 -9.28375,-4.56992 -10.43205,-9.92426 -0.38102,-1.77665 -0.10502,-6.4704 0.50515,-8.59081 2.15328,-7.48283 7.9282,-13.6477 14.57797,-15.56236 3.10289,-0.89341 7.98738,-0.95336 11.02532,-0.13533 3.24959,0.87503 6.33736,3.33948 7.65302,6.10814 1.17642,2.47566 1.51987,4.35068 1.36998,7.47936 -0.43504,9.08056 -6.62339,17.39147 -14.92743,20.04741 -1.69234,0.54127 -2.48809,0.64937 -5.27547,0.71663 -1.80538,0.0436 -3.8288,-0.0189 -4.49649,-0.13878 z m 6.02052,-0.79323 c 0.96717,-0.17363 2.40967,-0.58124 3.20557,-0.90582 6.74597,-2.75107 12.01595,-11.51066 12.03059,-19.99686 0.005,-3.01485 -0.31605,-4.72691 -1.27859,-6.81422 -1.79056,-3.88286 -5.1275,-5.6747 -10.0889,-5.41742 -4.1755,0.21652 -7.35453,1.71608 -10.55093,4.97692 -4.07857,4.1608 -6.4859,10.09453 -6.51666,16.06274 -0.0216,4.19948 0.95684,7.18997 3.09086,9.44639 2.42686,2.56606 5.7362,3.43309 10.10806,2.64827 z m 23.21187,-0.21579 c -7e-4,-4.32801 -0.99493,-30.05278 -1.1805,-30.54085 -0.1254,-0.32984 -0.54411,-1.05914 -0.93046,-1.62069 -0.38635,-0.56154 -0.70245,-1.0811 -0.70245,-1.15459 0,-0.0735 1.60103,-0.1336 3.55785,-0.1336 h 3.55784 l -0.48237,0.52755 c -1.22236,1.33683 -1.19791,0.99188 -0.99876,14.09373 0.1101,7.24297 0.27639,12.25094 0.41128,12.38584 0.14563,0.14563 0.31385,-0.01 0.47132,-0.43609 0.343,-0.9281 11.38868,-25.91945 11.61433,-26.27795 0.10145,-0.16119 0.38926,-0.29308 0.63955,-0.29308 0.41088,0 0.45561,0.17653 0.46035,1.81711 0.003,0.99941 0.15908,6.56505 0.3471,12.36808 0.18802,5.80303 0.34647,11.13126 0.35212,11.84052 l 0.0103,1.28957 1.36852,-3.04806 c 0.75271,-1.67643 3.14908,-7.00467 5.32529,-11.84053 l 3.95674,-8.79247 -0.0225,-1.81711 -0.0225,-1.81711 2.135748,0.0108 2.13574,0.0108 -1.3392,1.22017 c -1.464858,1.33466 -0.88149,0.11229 -13.028848,27.30005 -1.51133,3.38265 -2.80066,6.15066 -2.86514,6.15114 -0.75649,0.006 -0.79801,-0.3952 -1.32745,-12.81389 -0.29035,-6.81073 -0.55887,-12.69592 -0.5967,-13.0782 -0.0616,-0.62234 -0.13475,-0.53648 -0.69922,0.82063 -0.34673,0.83363 -2.93738,6.73234 -5.757,13.10825 -4.66271,10.54363 -5.18377,11.60786 -5.75875,11.76163 -0.62679,0.16763 -0.63218,0.15875 -0.63234,-1.0416 z m -67.9878701,0.84091 c 0.004,-0.0967 0.65007,-0.64294 1.43625,-1.21383 1.48302,-1.0769 2.6929,-2.69049 3.50432,-4.67365 0.39182,-0.95761 2.06728,-9.0812 10.4036901,-50.442953 1.07863,-5.35169 2.18137,-10.77882 2.45054,-12.06031 0.5711,-2.719 0.58076,-2.70218 -1.55339,-2.70745 -2.91374,-0.007 -5.19522,0.82463 -7.95804,2.90148 -3.6127201,2.71574 -7.4593101,9.02065 -9.8140201,16.08605 -0.60720005,1.82192 -1.14266005,3.27393 -1.18991005,3.22668 -0.0473,-0.0472 1.36812005,-5.19747 3.14526005,-11.44494 l 3.23116,-11.35903 16.9258601,-0.0602 16.92586,-0.0601 v 0.5095 c 0,0.28023 -0.69044,5.8424 -1.53432,12.36037 -1.45245,11.21859 -2.00321,14.57994 -1.65667,10.11087 0.38205,-4.92692 0.43005,-8.01361 0.15821,-10.17329 -0.91587,-7.27635 -3.84935,-11.29026 -8.84973,-12.10921 -2.17247,-0.35579 -3.30589,-0.29525 -3.44636,0.18409 -0.0661,0.22567 -1.02732,5.05274 -2.13597,10.72681 -1.10866,5.67408 -2.22029,11.31884 -2.47029,12.54393 -0.25001,1.22508 -1.72642,8.716273 -3.28091,16.647073 -1.55448,7.93081 -3.2567,16.5826 -3.78271,19.22621 -0.526,2.6436 -0.94842,5.2399 -0.93871,5.76956 0.0228,1.24154 0.74739,3.16148 1.79021,4.74325 0.45376,0.68828 0.82502,1.29496 0.82502,1.34818 0,0.0532 -2.74324,0.0968 -6.0960901,0.0968 -3.35285,0 -6.09302,-0.0791 -6.08926,-0.17585 z m 96.4267301,-1.4068 c 0.57055,-0.7415 1.196808,-1.77022 1.391688,-2.28604 0.6763,-1.79009 1.81723,-7.07296 3.10467,-14.37568 0.71189,-4.03794 1.50593,-8.1704 1.76454,-9.18324 0.25859,-1.01284 0.47017,-2.23324 0.47017,-2.71199 v -0.87047 l -1.4654,0.16406 -1.46541,0.16407 0.82063,-0.85142 c 1.32541,-1.37513 3.80656,-2.9537 4.86592,-3.09578 1.69774,-0.22772 1.74485,0.53244 0.40159,6.48293 -0.32876,1.45643 -0.56501,2.74627 -0.52499,2.86631 0.04,0.12004 0.90628,-1.00719 1.92503,-2.50497 1.95277,-2.87098 4.58314,-5.58154 6.15954,-6.34735 1.08928,-0.52917 3.93404,-0.7222 5.07821,-0.34459 0.45566,0.15038 1.14452,0.63338 1.5308,1.07332 1.93166,2.20006 1.64789,6.11247 -1.37694,18.98383 -0.75763,3.22391 -1.6044,7.04985 -1.8817,8.5021 -0.53128,2.78233 -0.52619,2.84915 0.41155,5.39001 0.0835,0.22614 -0.68517,0.29308 -3.36546,0.29308 h -3.47365 l 1.00318,-1.02217 c 0.95768,-0.97581 1.04408,-1.1858 1.90529,-4.6307 0.49615,-1.98469 1.48855,-5.92974 2.20531,-8.76678 1.78845,-7.07887 2.29546,-10.10661 2.33607,-13.95072 0.0277,-2.62292 -0.0373,-3.29467 -0.37932,-3.92036 -0.76858,-1.40606 -2.13026,-1.61894 -4.09451,-0.64011 -2.79093,1.39079 -7.68291,7.87238 -8.85464,11.73191 -0.58617,1.93074 -2.40782,10.3211 -3.04031,14.00347 -0.67273,3.91647 -0.73104,5.40703 -0.24481,6.2576 0.18429,0.32239 0.33883,0.66529 0.3434,0.76201 0.004,0.0967 -1.47584,0.17585 -3.28978,0.17585 h -3.298058 z m -42.38936,-35.48161 c -4.37467,-0.86591 -7.90622,-2.79678 -10.803,-5.906533 -2.02656,-2.17556 -3.44205,-4.79296 -4.23946,-7.8393 -0.81919,-3.12948 -0.87324,-7.84733 -0.12493,-10.90351 2.05084,-8.37587 8.34529,-13.67196 16.85277,-14.17978 6.58502,-0.39306 12.13491,2.25639 14.41089,6.87957 0.97297,1.9764 1.20438,4.89873 0.54743,6.91308 -0.42695,1.30907 -2.07424,4.00163 -2.91205,4.75984 -0.26641,0.2411 -0.48437,0.52751 -0.48437,0.63648 0,0.10897 1.1606,0.19813 2.57911,0.19813 h 2.57912 v 6.79399 6.79399 l -1.68477,1.390343 c -2.15005,1.77431 -4.66918,3.11307 -7.34214,3.90185 -1.68688,0.4978 -2.72163,0.63988 -5.15823,0.70831 -1.67643,0.0471 -3.57559,-0.0188 -4.22037,-0.14646 z m 7.28397,-1.17323 c 2.1596,-0.3943 6.08387,-2.01471 7.02208,-2.89956 l 0.81695,-0.77048 -0.002,-3.372073 c -0.005,-8.80621 -0.80376,-10.06507 -6.50453,-10.24563 -2.41279,-0.0764 -2.63773,-0.12181 -2.63773,-0.5323 0,-0.41367 0.19338,-0.44875 2.47352,-0.44875 2.96245,0 3.26471,-0.12768 5.19994,-2.19645 1.83873,-1.96561 2.4713,-3.52353 2.48782,-6.12709 0.01,-1.55011 -0.0964,-2.11162 -0.61177,-3.23458 -2.17941,-4.74849 -9.31623,-7.69059 -15.4849,-6.38353 -2.83151,0.59997 -4.94158,1.79759 -7.23112,4.1042 -1.68619,1.69878 -2.21158,2.41904 -3.10659,4.25884 -1.60818,3.3058 -2.08647,5.7764 -1.94513,10.04754 0.14774,4.46459 0.87885,7.10686 2.95078,10.66413 2.03791,3.498873 6.43891,6.574123 10.34368,7.227763 1.22814,0.20559 4.8956,0.1514 6.22888,-0.092 z m 14.0731,0.66433 c 0.0911,-0.1612 0.41387,-0.62895 0.71724,-1.03945 l 0.55157,-0.74638 V 90.739877 c 0,-11.38121 -0.0174,-11.85617 -0.43394,-11.85617 -0.23867,0 -0.77421,0.11862 -1.19009,0.2636 -0.5601,0.19525 -0.82459,0.19516 -1.02009,-2.3e-4 -0.19562,-0.19562 -0.0241,-0.51131 0.66254,-1.21948 2.12292,-2.18947 3.95751,-3.07016 4.74827,-2.2794 0.21165,0.21165 0.28136,3.31643 0.28136,12.53238 0,7.83077 0.0907,12.673893 0.25134,13.423033 0.13824,0.64459 0.56094,1.59937 0.93933,2.12173 l 0.68799,0.94962 h -3.18059 c -2.47651,0 -3.14391,-0.0649 -3.01493,-0.29308 z m 8.66344,-0.3517 c 0.22804,-0.35463 0.55671,-0.8529 0.73036,-1.10727 0.45674,-0.669 0.46794,-23.930633 0.0117,-24.105743 -0.16729,-0.0642 -0.71423,0.0243 -1.21544,0.19657 -1.63845,0.56328 -1.71213,0.0624 -0.22474,-1.5277 1.22813,-1.31297 2.86995,-2.17748 3.9382,-2.07368 l 0.73694,0.0716 0.11724,4.22038 0.11723,4.22039 1.00939,-2.81359 c 1.11099,-3.09671 1.8867,-4.41022 3.079,-5.21372 2.18256,-1.47084 5.606218,0.29983 6.454118,3.33799 0.18488,0.66247 0.36598,2.67642 0.41639,4.6307 0.0822,3.18711 0.0566,3.45838 -0.32619,3.45838 -0.45031,0 -0.5263,-0.2196 -1.37934,-3.98592 -0.277458,-1.22509 -0.921698,-3.10197 -1.431658,-4.17086 -0.74509,-1.56175 -1.08333,-2.01788 -1.72217,-2.32253 -0.73815,-0.352 -0.83901,-0.35027 -1.4104,0.0241 -1.34002,0.87802 -2.88979,4.20903 -4.02117,8.64295 -0.54499,2.13586 -0.62413,2.97652 -0.72286,7.67974 -0.13955,6.64689 0.11683,9.084693 1.10281,10.486493 l 0.70091,0.99648 h -3.18742 -3.18741 z m 16.081748,-0.11723 c 0.15446,-0.29015 0.47245,-0.79133 0.70665,-1.11372 0.39773,-0.54749 0.43634,-1.64646 0.58549,-16.657753 0.0878,-8.83938 0.0908,-16.3459 0.007,-16.68115 -0.14623,-0.58265 -0.19615,-0.59986 -1.13089,-0.38984 -1.68886,0.37946 -1.84039,0.16253 -0.66673,-0.9544 1.41755,-1.34902 2.91206,-2.36247 3.48385,-2.36247 1.15422,0 1.11755,-0.51362 1.2896,18.05991 0.15688,16.934123 0.1743,17.430483 0.65038,18.537183 0.26905,0.62544 0.6359,1.25891 0.81519,1.40771 0.1793,0.14881 0.326,0.36315 0.326,0.47632 0,0.11316 -1.42808,0.20575 -3.17353,0.20575 h -3.17353 z m 10.52106,-0.84291 c 0,-0.10897 0.21207,-0.39005 0.47127,-0.62462 0.61125,-0.55319 1.03908,-2.03418 1.75964,-6.091443 0.32234,-1.81506 0.69083,-3.66531 0.81885,-4.11167 0.37528,-1.30858 0.32074,-1.45742 -0.47041,-1.28365 -0.91716,0.20144 -0.75897,-0.23115 0.40994,-1.12105 1.06927,-0.81407 1.91129,-1.04809 2.19658,-0.61052 0.28633,0.43913 0.11641,1.45707 -1.09139,6.53817 -1.05502,4.438403 -1.27621,6.045803 -0.9599,6.975363 0.17501,0.51426 0.13778,0.52755 -1.47752,0.52755 -0.91139,0 -1.65706,-0.0892 -1.65706,-0.19813 z m 4.1225,-0.005 c -0.0691,-0.11173 0.084,-0.39281 0.34019,-0.62462 0.60785,-0.55009 1.01082,-1.95719 1.8737,-6.542483 0.38987,-2.0718 0.77449,-4.07333 0.8547,-4.44784 0.14269,-0.66633 0.12891,-0.67756 -0.64183,-0.52341 l -0.78766,0.15753 0.78419,-0.80908 c 0.89289,-0.92122 1.94238,-1.43134 2.50252,-1.21639 0.38171,0.14647 0.36813,0.60365 -0.0738,2.48612 -0.10914,0.4649 0.0296,0.36843 0.67067,-0.46626 1.6425,-2.1386 3.57864,-2.74379 4.8168,-1.50562 0.58054,0.58053 0.60147,0.69141 0.47618,2.52051 -0.0721,1.05229 -0.5136,3.53075 -0.98115,5.50768 -0.64184,2.714023 -0.812,3.848243 -0.69467,4.630703 l 0.1554,1.03628 h -1.55065 c -0.85285,0 -1.55064,-0.0629 -1.55064,-0.13966 0,-0.0768 0.19646,-0.41972 0.43655,-0.76201 0.54356,-0.77493 2.32184,-8.019503 2.51241,-10.235463 0.10849,-1.26152 0.06,-1.7487 -0.20933,-2.10562 -0.33486,-0.44366 -0.38665,-0.4471 -1.1625,-0.0771 -0.92011,0.43878 -2.21448,1.93295 -2.96504,3.42277 -0.65522,1.30053 -1.87988,6.16923 -1.93047,7.674643 -0.0216,0.64205 0.0427,1.40477 0.1429,1.69492 0.17674,0.51197 0.13672,0.52755 -1.35542,0.52755 -0.84562,0 -1.59401,-0.0914 -1.66306,-0.20313 z m 0.0197,-16.365803 c -0.086,-0.086 -0.1563,-0.45155 -0.1563,-0.81239 0,-0.73622 0.64577,-1.21594 1.47751,-1.0976 0.59964,0.0853 0.84382,1.17767 0.38644,1.72877 -0.28539,0.34389 -1.42411,0.46473 -1.70763,0.18121 z m -4.96283,-6.98065 c -3.15281,-1.16537 -4.03386,-5.28276 -2.01007,-9.39364 1.78576,-3.62744 5.73654,-5.60919 12.4228,-6.23141 1.49341,-0.13898 2.73152,-0.27073 2.75138,-0.29278 0.0199,-0.0221 -0.95326,-8.16435 -2.16249,-18.09398 l -2.19863,-18.05387 -1.1776,-2.40609 c -0.64769,-1.32336 -1.17753,-2.48396 -1.17744,-2.57913 1.2e-4,-0.0952 2.11035,-0.17303 4.68942,-0.17303 2.5791,0 4.68919,0.0359 4.68914,0.0798 -7e-5,0.0439 -0.47953,0.64098 -1.06546,1.32683 -0.58592,0.68585 -1.16381,1.59034 -1.28416,2.00998 -0.16593,0.57859 0.23374,4.28122 1.6537,15.32025 1.02989,8.00649 1.9576,14.87378 2.06159,15.26065 l 0.18904,0.7034 0.8275,-1.28956 c 0.96159,-1.49853 3.77491,-6.78256 9.05054,-16.99878 2.06437,-3.99764 4.45135,-8.61294 5.3044,-10.25621 0.85305,-1.64327 1.54869,-3.22591 1.54585,-3.51698 -0.003,-0.29108 -0.21383,-0.98916 -0.46893,-1.55131 -0.25507,-0.56215 -0.46377,-1.03694 -0.46377,-1.0551 0,-0.0181 1.37162,-0.033 3.04805,-0.033 1.67642,0 3.04804,0.042 3.04804,0.0933 0,0.0513 -0.87369,1.0009 -1.94151,2.11019 -3.14392,3.26604 -5.87476,8.00094 -13.13079,22.76714 -8.67062,17.64489 -10.37994,20.86292 -13.91888,26.20423 -2.07017,3.12449 -3.87541,5.05147 -5.3387,5.69876 -1.42977,0.63247 -3.73728,0.796 -4.94302,0.35032 z m 4.08773,-1.58687 c 1.89031,-0.91385 2.99778,-2.32746 5.99427,-7.65118 1.54747,-2.74932 2.76082,-5.06586 2.69635,-5.14787 -0.18493,-0.2352 -3.70289,-0.0427 -5.50993,0.30146 -5.75492,1.09615 -8.79244,4.04843 -8.79244,8.54574 0,2.21857 0.70062,3.71114 1.99295,4.24568 0.88794,0.36728 2.52645,0.23424 3.6188,-0.29383 z m -37.415298,-7.21788 c -0.81066,-0.32714 -1.25603,-1.18066 -1.25603,-2.40705 0,-1.45452 0.50398,-2.21247 1.68207,-2.5297 1.91323,-0.51518 3.47616,0.62142 3.47616,2.52795 0,0.878 -0.12863,1.17555 -0.79718,1.84411 -0.64006,0.64005 -0.97511,0.79425 -1.69987,0.78232 -0.49648,-0.008 -1.1288,-0.10611 -1.40515,-0.21763 z m -45.52217,-3.79407 c -5.39208,-0.67637 -10.40645,-2.80043 -14.09363,-5.97 -1.34481,-1.15602 -3.53916,-3.92776 -4.5715,-5.77438 -1.91587,-3.42706 -3.18803,-8.83935 -3.18193,-13.5373 0.0211,-16.25029 10.85672,-33.0014696 25.2427,-39.0235796 5.31114,-2.22328998 8.54114,-2.81692998 15.3138,-2.8144999789402 C 57.299522,0.00200742 57.893492,0.04840742 60.306042,0.61939742 c 9.47812,2.24320998 15.47621,7.81641998 17.86527,16.59977958 0.73067,2.68631 0.97918,4.81914 0.97918,8.40377 0,6.36351 -1.51815,12.43549 -4.70389,18.81361 -5.48866,10.98876 -14.64339,18.79478 -25.5421,21.77914 -3.87508,1.06109 -10.70198,1.46735 -15.19247,0.90407 z m 9.09638,-1.47668 c 2.77554,-0.42644 4.98938,-1.0427 7.39581,-2.05873 11.03745,-4.66018 20.05955,-16.63934 22.99447,-30.53108 0.82657,-3.91237 1.034,-10.25095 0.44979,-13.74478 -0.93327,-5.58138 -2.86023,-9.5297296 -6.25691,-12.8204796 -1.63559,-1.58458 -2.63247,-2.25358 -4.97875,-3.34117 -8.26054,-3.82907998 -19.43484,-2.14534 -28.02313,4.22251 -15.40475,11.4219596 -22.18957,35.0139296 -14.05618,48.8757596 0.59972,1.02211 1.80791,2.48073 3.16282,3.81842 1.94585,1.9211 2.48928,2.30872 4.832,3.44657 4.73202,2.29833 9.15928,2.95048 14.48008,2.13298 z m 33.05957,-3.32163 c 0,-0.0823 0.41454,-0.59935 0.92121,-1.14902 0.50666,-0.54966 1.14568,-1.43941 1.42004,-1.9772 0.78425,-1.53726 2.21662,-7.56975 3.28625,-13.84016 1.01841,-5.97014 1.45826,-8.2252 2.43854,-12.5021 0.31986,-1.39552 0.51839,-2.70193 0.44119,-2.90312 -0.11559,-0.30122 -0.42364,-0.34206 -1.74469,-0.23131 -0.91568,0.0768 -1.60431,0.0421 -1.60431,-0.0808 0,-0.39072 3.37332,-3.03106 4.78537,-3.74559 1.53051,-0.77445 2.50523,-0.88774 2.95679,-0.34365 0.40696,0.49035 0.18785,2.80466 -0.59498,6.28438 -0.34314,1.52526 -0.57629,2.82079 -0.51812,2.87896 0.0582,0.0582 0.82093,-0.94809 1.69499,-2.23614 2.00156,-2.9495 4.97106,-5.89185 6.78381,-6.72175 1.1639,-0.53286 1.57715,-0.59955 3.27027,-0.52782 2.414358,0.10229 3.548598,0.74096 4.386468,2.46992 1.21884,2.51516 0.83854,6.60365 -1.57723,16.95563 -0.70721,3.03047 -1.69574,7.48688 -2.19675,9.90313 l -0.910938,4.39318 0.57322,1.68538 c 0.31528,0.92696 0.573238,1.71966 0.573238,1.76155 0,0.0419 -1.804508,0.0762 -4.010028,0.0762 h -4.01006 l 1.22131,-1.34818 1.2213,-1.34818 1.86088,-7.38567 c 3.19888,-12.696 3.951068,-16.68167 3.951068,-20.93569 0,-3.56342 -0.653788,-4.85556 -2.456728,-4.85556 -2.22249,0 -5.08501,2.40417 -8.32867,6.99514 -2.75025,3.89261 -3.30605,5.33935 -5.01408,13.0517 -2.07513,9.36986 -2.45589,12.99633 -1.55094,14.77135 0.25791,0.50588 0.46893,0.95022 0.46893,0.98743 0,0.0372 -1.7409,0.0677 -3.86867,0.0677 -2.12777,0 -3.86868,-0.0673 -3.86868,-0.14963 z m 26.494558,-0.17336 c 0,-0.17764 0.16211,-0.45753 0.36025,-0.62196 0.63247,-0.52491 1.92257,-3.09703 2.53021,-5.04457 0.3237,-1.03751 0.96234,-3.72801 1.41919,-5.97888 2.02011,-9.95311 6.71021,-33.94867 6.71021,-34.33085 0,-0.36497 -0.13304,-0.39929 -0.99648,-0.25708 -0.54806,0.0903 -1.19683,0.1833 -1.44168,0.20673 -2.07452,0.19848 2.37199,-3.70881 5.15854,-4.53297 1.39157,-0.41158 1.96892,-0.0541 1.96892,1.21892 0,0.53047 -2.12062,10.99802 -4.71249,23.26123 -3.27893,15.51404 -4.67641,22.56566 -4.5939,23.18077 0.0652,0.48622 0.34136,1.31144 0.61364,1.83383 0.27226,0.52238 0.43414,1.04835 0.3597,1.16881 -0.0745,0.12045 -1.76454,0.21901 -3.75574,0.21901 -2.91878,0 -3.62037,-0.0626 -3.62037,-0.32299 z"
     id="path20" />
</svg>
